<svg width="39" height="37" viewBox="0 0 39 37" fill="none" xmlns="http://www.w3.org/2000/svg">
<path d="M32.5 18.5001H17.0625M29.25 23.1251L34.125 18.5001L29.25 13.8751M21.125 10.7917V9.25008C21.125 8.43233 20.7826 7.64807 20.1731 7.06983C19.5636 6.4916 18.737 6.16675 17.875 6.16675H9.75C8.88805 6.16675 8.0614 6.4916 7.4519 7.06983C6.84241 7.64807 6.5 8.43233 6.5 9.25008V27.7501C6.5 28.5678 6.84241 29.3521 7.4519 29.9303C8.0614 30.5086 8.88805 30.8334 9.75 30.8334H17.875C18.737 30.8334 19.5636 30.5086 20.1731 29.9303C20.7826 29.3521 21.125 28.5678 21.125 27.7501V26.2084" stroke="#D9D9D9" stroke-width="2" stroke-linecap="round" stroke-linejoin="round"/>
</svg>
