<svg width="70" height="70" viewBox="0 0 70 70" fill="none" xmlns="http://www.w3.org/2000/svg">
<path d="M70 35C70 54.33 54.33 70 35 70C15.67 70 0 54.33 0 35C0 15.67 15.67 0 35 0C54.33 0 70 15.67 70 35ZM30.9516 53.5322L56.9193 27.5645C57.8011 26.6827 57.8011 25.2529 56.9193 24.3711L53.726 21.1778C52.8442 20.2959 51.4144 20.2959 50.5325 21.1778L29.3548 42.3554L19.4675 32.468C18.5857 31.5862 17.1559 31.5862 16.274 32.468L13.0807 35.6613C12.1989 36.5431 12.1989 37.9729 13.0807 38.8547L27.7581 53.5321C28.64 54.414 30.0697 54.414 30.9516 53.5322Z" fill="#19756A"/>
</svg>
