<svg width="70" height="70" viewBox="0 0 70 70" fill="none" xmlns="http://www.w3.org/2000/svg">
<path d="M35 0C15.6653 0 0 15.6653 0 35C0 54.3347 15.6653 70 35 70C54.3347 70 70 54.3347 70 35C70 15.6653 54.3347 0 35 0ZM35 63.2258C19.4052 63.2258 6.77419 50.5948 6.77419 35C6.77419 19.4052 19.4052 6.77419 35 6.77419C50.5948 6.77419 63.2258 19.4052 63.2258 35C63.2258 50.5948 50.5948 63.2258 35 63.2258ZM49.3669 26.2218L40.5887 35L49.3669 43.7782C50.0302 44.4415 50.0302 45.5141 49.3669 46.1774L46.1774 49.3669C45.5141 50.0302 44.4415 50.0302 43.7782 49.3669L35 40.5887L26.2218 49.3669C25.5585 50.0302 24.4859 50.0302 23.8226 49.3669L20.6331 46.1774C19.9698 45.5141 19.9698 44.4415 20.6331 43.7782L29.4113 35L20.6331 26.2218C19.9698 25.5585 19.9698 24.4859 20.6331 23.8226L23.8226 20.6331C24.4859 19.9698 25.5585 19.9698 26.2218 20.6331L35 29.4113L43.7782 20.6331C44.4415 19.9698 45.5141 19.9698 46.1774 20.6331L49.3669 23.8226C50.0302 24.4859 50.0302 25.5585 49.3669 26.2218Z" fill="#853F3F"/>
</svg>
